<svg width="169" height="158" viewBox="0 0 169 158" fill="none" xmlns="http://www.w3.org/2000/svg">
<g clip-path="url(#clip0_704_6078)">
<path d="M81.0951 140.522H16.8595C10.6509 140.522 5.61816 135.488 5.61816 129.28V118.038H91.8931L81.0951 140.522Z" fill="#D3DCFB"/>
<path d="M151.772 50.5877V97.8155V129.279H16.8595C10.6509 129.279 5.61816 124.246 5.61816 118.038V50.5877L84.3158 22.4832L151.772 50.5877Z" fill="#EBF5FC"/>
<path d="M25.4704 73.0715H19.4983C18.0432 73.0715 16.8635 71.8917 16.8635 70.4367V64.4646C16.8635 63.0096 18.0432 61.8298 19.4983 61.8298H25.4704C26.9254 61.8298 28.1052 63.0096 28.1052 64.4646V70.4367C28.1052 71.8917 26.9254 73.0715 25.4704 73.0715Z" fill="#3C58A0"/>
<path d="M47.954 73.0715H41.982C40.5269 73.0715 39.3472 71.8917 39.3472 70.4367V64.4646C39.3472 63.0096 40.5269 61.8298 41.982 61.8298H47.954C49.4091 61.8298 50.5888 63.0096 50.5888 64.4646V70.4367C50.5888 71.8917 49.4091 73.0715 47.954 73.0715Z" fill="#3C58A0"/>
<path d="M70.4372 73.0715H64.4651C63.01 73.0715 61.8303 71.8917 61.8303 70.4367V64.4646C61.8303 63.0096 63.01 61.8298 64.4651 61.8298H70.4372C71.8922 61.8298 73.072 63.0096 73.072 64.4646V70.4367C73.072 71.8917 71.8926 73.0715 70.4372 73.0715Z" fill="#3C58A0"/>
<path d="M92.9208 73.0715H86.9487C85.4937 73.0715 84.314 71.8917 84.314 70.4367V64.4646C84.314 63.0096 85.4937 61.8298 86.9487 61.8298H92.9208C94.3759 61.8298 95.5556 63.0096 95.5556 64.4646V70.4367C95.5556 71.8917 94.3759 73.0715 92.9208 73.0715Z" fill="#3C58A0"/>
<path d="M115.401 73.0715H109.428C107.973 73.0715 106.794 71.8917 106.794 70.4367V64.4646C106.794 63.0096 107.973 61.8298 109.428 61.8298H115.401C116.856 61.8298 118.035 63.0096 118.035 64.4646V70.4367C118.035 71.8917 116.856 73.0715 115.401 73.0715Z" fill="#3C58A0"/>
<path d="M137.884 73.0715H131.912C130.457 73.0715 129.277 71.8917 129.277 70.4367V64.4646C129.277 63.0096 130.457 61.8298 131.912 61.8298H137.884C139.339 61.8298 140.519 63.0096 140.519 64.4646V70.4367C140.519 71.8917 139.339 73.0715 137.884 73.0715Z" fill="#3C58A0"/>
<path d="M25.4704 95.5546H19.4983C18.0432 95.5546 16.8635 94.3749 16.8635 92.9198V86.9478C16.8635 85.4927 18.0432 84.313 19.4983 84.313H25.4704C26.9254 84.313 28.1052 85.4927 28.1052 86.9478V92.9198C28.1052 94.3752 26.9254 95.5546 25.4704 95.5546Z" fill="#3C58A0"/>
<path d="M47.954 95.5546H41.982C40.5269 95.5546 39.3472 94.3749 39.3472 92.9198V86.9478C39.3472 85.4927 40.5269 84.313 41.982 84.313H47.954C49.4091 84.313 50.5888 85.4927 50.5888 86.9478V92.9198C50.5888 94.3752 49.4091 95.5546 47.954 95.5546Z" fill="#3C58A0"/>
<path d="M70.4372 95.5546H64.4651C63.01 95.5546 61.8303 94.3749 61.8303 92.9198V86.9478C61.8303 85.4927 63.01 84.313 64.4651 84.313H70.4372C71.8922 84.313 73.072 85.4927 73.072 86.9478V92.9198C73.072 94.3752 71.8926 95.5546 70.4372 95.5546Z" fill="#3C58A0"/>
<path d="M95.5556 95.5546V87.1233C95.5556 85.5711 94.2975 84.313 92.7453 84.313H87.1243C85.5721 84.313 84.314 85.5711 84.314 87.1233V92.7443C84.314 94.2965 85.5724 95.5546 87.1243 95.5546H95.5556Z" fill="#3C58A0"/>
<path d="M25.4704 118.038H19.4983C18.0432 118.038 16.8635 116.859 16.8635 115.403V109.431C16.8635 107.976 18.0432 106.797 19.4983 106.797H25.4704C26.9254 106.797 28.1052 107.976 28.1052 109.431V115.403C28.1052 116.859 26.9254 118.038 25.4704 118.038Z" fill="#3C58A0"/>
<path d="M47.954 118.038H41.982C40.5269 118.038 39.3472 116.859 39.3472 115.403V109.431C39.3472 107.976 40.5269 106.797 41.982 106.797H47.954C49.4091 106.797 50.5888 107.976 50.5888 109.431V115.403C50.5888 116.859 49.4091 118.038 47.954 118.038Z" fill="#3C58A0"/>
<path d="M70.4372 118.038H64.4651C63.01 118.038 61.8303 116.859 61.8303 115.403V109.431C61.8303 107.976 63.01 106.797 64.4651 106.797H70.4372C71.8922 106.797 73.072 107.976 73.072 109.431V115.403C73.072 116.859 71.8926 118.038 70.4372 118.038Z" fill="#3C58A0"/>
<path d="M137.805 61.8293H131.992C131.64 61.8293 131.305 61.8985 130.996 62.02C132.002 62.4172 132.715 63.3961 132.715 64.5435V70.3565C132.715 71.5039 132.002 72.4828 130.996 72.88C131.305 73.0018 131.64 73.071 131.992 73.071H137.805C139.304 73.071 140.519 71.8557 140.519 70.3568V64.5438C140.519 63.0446 139.303 61.8293 137.805 61.8293Z" fill="#2A428C"/>
<path d="M115.321 61.8293H109.508C109.156 61.8293 108.821 61.8985 108.513 62.02C109.519 62.4172 110.232 63.3961 110.232 64.5435V70.3565C110.232 71.5039 109.519 72.4828 108.513 72.88C108.821 73.0018 109.156 73.071 109.508 73.071H115.321C116.82 73.071 118.035 71.8557 118.035 70.3568V64.5438C118.035 63.0446 116.82 61.8293 115.321 61.8293Z" fill="#2A428C"/>
<path d="M92.8415 61.8293H87.0285C86.6767 61.8293 86.3418 61.8985 86.0332 62.02C87.0394 62.4172 87.7524 63.3961 87.7524 64.5435V70.3565C87.7524 71.5039 87.0394 72.4828 86.0332 72.88C86.3418 73.0018 86.6767 73.071 87.0285 73.071H92.8415C94.3407 73.071 95.556 71.8557 95.556 70.3568V64.5438C95.5556 63.0446 94.3403 61.8293 92.8415 61.8293Z" fill="#2A428C"/>
<path d="M70.3578 61.8293H64.5449C64.1931 61.8293 63.8582 61.8985 63.5496 62.02C64.5557 62.4172 65.2688 63.3961 65.2688 64.5435V70.3565C65.2688 71.5039 64.5557 72.4828 63.5496 72.88C63.8582 73.0018 64.1931 73.071 64.5449 73.071H70.3578C71.857 73.071 73.0723 71.8557 73.0723 70.3568V64.5438C73.072 63.0446 71.857 61.8293 70.3578 61.8293Z" fill="#2A428C"/>
<path d="M47.8742 61.8293H42.0612C41.7095 61.8293 41.3745 61.8985 41.0659 62.02C42.0721 62.4172 42.7848 63.3961 42.7848 64.5435V70.3565C42.7848 71.5039 42.0717 72.4828 41.0659 72.88C41.3745 73.0018 41.7095 73.071 42.0612 73.071H47.8742C49.3734 73.071 50.5887 71.8557 50.5887 70.3568V64.5438C50.5887 63.0446 49.3734 61.8293 47.8742 61.8293Z" fill="#2A428C"/>
<path d="M25.391 61.8293H19.5781C19.2263 61.8293 18.8914 61.8985 18.5828 62.02C19.5889 62.4172 20.302 63.3961 20.302 64.5435V70.3565C20.302 71.5039 19.5889 72.4828 18.5828 72.88C18.8914 73.0018 19.2263 73.071 19.5781 73.071H25.391C26.8902 73.071 28.1055 71.8557 28.1055 70.3568V64.5438C28.1052 63.0446 26.8899 61.8293 25.391 61.8293Z" fill="#2A428C"/>
<path d="M25.391 84.313H19.5781C19.2263 84.313 18.8914 84.3822 18.5828 84.5037C19.5889 84.9009 20.302 85.8797 20.302 87.0271V92.8405C20.302 93.9879 19.5889 94.9667 18.5828 95.3639C18.8914 95.4858 19.2263 95.5549 19.5781 95.5549H25.391C26.8902 95.5549 28.1055 94.3397 28.1055 92.8408V87.0275C28.1052 85.5283 26.8899 84.313 25.391 84.313Z" fill="#2A428C"/>
<path d="M25.391 106.797H19.5781C19.2263 106.797 18.8914 106.866 18.5828 106.987C19.5889 107.385 20.302 108.363 20.302 109.511V115.324C20.302 116.472 19.5889 117.45 18.5828 117.848C18.8914 117.969 19.2263 118.039 19.5781 118.039H25.391C26.8902 118.039 28.1055 116.823 28.1055 115.324V109.511C28.1052 108.012 26.8899 106.797 25.391 106.797Z" fill="#2A428C"/>
<path d="M47.8742 84.313H42.0612C41.7095 84.313 41.3745 84.3822 41.0659 84.5037C42.0721 84.9009 42.7848 85.8797 42.7848 87.0271V92.8405C42.7848 93.9879 42.0717 94.9667 41.0659 95.3639C41.3745 95.4858 41.7095 95.5549 42.0612 95.5549H47.8742C49.3734 95.5549 50.5887 94.3397 50.5887 92.8408V87.0275C50.5887 85.5283 49.3734 84.313 47.8742 84.313Z" fill="#2A428C"/>
<path d="M47.8742 106.797H42.0612C41.7095 106.797 41.3745 106.866 41.0659 106.987C42.0721 107.385 42.7848 108.363 42.7848 109.511V115.324C42.7848 116.472 42.0717 117.45 41.0659 117.848C41.3745 117.969 41.7095 118.039 42.0612 118.039H47.8742C49.3734 118.039 50.5887 116.823 50.5887 115.324V109.511C50.5887 108.012 49.3734 106.797 47.8742 106.797Z" fill="#2A428C"/>
<path d="M70.3578 84.313H64.5449C64.1931 84.313 63.8582 84.3822 63.5496 84.5037C64.5557 84.9009 65.2688 85.8797 65.2688 87.0271V92.8405C65.2688 93.9879 64.5557 94.9667 63.5496 95.3639C63.8582 95.4858 64.1931 95.5549 64.5449 95.5549H70.3578C71.857 95.5549 73.0723 94.3397 73.0723 92.8408V87.0275C73.072 85.5283 71.857 84.313 70.3578 84.313Z" fill="#2A428C"/>
<path d="M95.5555 95.5546V87.0271C95.5555 85.528 94.3402 84.313 92.841 84.313H87.028C86.6763 84.313 86.3413 84.3822 86.0327 84.5037C87.0389 84.9009 87.7519 85.8797 87.7519 87.0271V92.8405C87.7519 93.9879 87.0389 94.9667 86.0327 95.3639C86.3413 95.4858 86.6763 95.5549 87.028 95.5549H95.5555V95.5546Z" fill="#2A428C"/>
<path d="M70.3578 106.797H64.5449C64.1931 106.797 63.8582 106.866 63.5496 106.987C64.5557 107.385 65.2688 108.363 65.2688 109.511V115.324C65.2688 116.472 64.5557 117.45 63.5496 117.848C63.8582 117.969 64.1931 118.039 64.5449 118.039H70.3578C71.857 118.039 73.0723 116.823 73.0723 115.324V109.511C73.072 108.012 71.857 106.797 70.3578 106.797Z" fill="#2A428C"/>
<path d="M143.962 47.3342V97.8157V129.28H151.772V97.8157V50.5879L143.962 47.3342Z" fill="#D3DCFB"/>
<path d="M151.772 50.5878V22.4832C151.772 16.2747 146.738 11.2419 140.53 11.2419H16.8595C10.6509 11.2419 5.61816 16.2747 5.61816 22.4832V50.5878H151.772Z" fill="#FF4155"/>
<path d="M41.0396 25.028H33.7225C32.3169 25.028 31.178 23.8888 31.178 22.4835C31.178 21.0782 32.3172 19.939 33.7225 19.939H41.0396C42.4453 19.939 43.5842 21.0782 43.5842 22.4835C43.5842 23.8888 42.445 25.028 41.0396 25.028Z" fill="#E80054"/>
<path d="M59.0162 25.028H51.6991C50.2934 25.028 49.1545 23.8888 49.1545 22.4835C49.1545 21.0782 50.2938 19.939 51.6991 19.939H59.0162C60.4219 19.939 61.5607 21.0782 61.5607 22.4835C61.5607 23.8888 60.4219 25.028 59.0162 25.028Z" fill="#E80054"/>
<path d="M105.683 25.028H98.3658C96.9602 25.028 95.8213 23.8888 95.8213 22.4835C95.8213 21.0782 96.9605 19.939 98.3658 19.939H105.683C107.089 19.939 108.228 21.0782 108.228 22.4835C108.228 23.8888 107.089 25.028 105.683 25.028Z" fill="#E80054"/>
<path d="M123.66 25.028H116.343C114.937 25.028 113.798 23.8888 113.798 22.4835C113.798 21.0782 114.937 19.939 116.343 19.939H123.66C125.066 19.939 126.205 21.0782 126.205 22.4835C126.205 23.8888 125.065 25.028 123.66 25.028Z" fill="#E80054"/>
<path d="M53.3955 21.0783C53.3955 24.9586 50.2499 28.1042 46.3695 28.1042C42.4891 28.1042 39.3435 24.9586 39.3435 21.0783V7.02598C39.3432 3.1456 42.4888 0 46.3692 0C50.2495 0 53.3951 3.1456 53.3951 7.02598V21.0783H53.3955Z" fill="#EBF5FC"/>
<path d="M118.039 21.0783C118.039 24.9586 114.894 28.1042 111.013 28.1042C107.133 28.1042 103.987 24.9586 103.987 21.0783V7.02598C103.987 3.1456 107.132 0 111.013 0C114.893 0 118.039 3.1456 118.039 7.02598V21.0783H118.039Z" fill="#EBF5FC"/>
<path d="M111.013 0C109.57 0 108.231 0.436057 107.115 1.1817C109 2.44178 110.243 4.58814 110.243 7.02631V21.0783C110.243 23.5161 109 25.6628 107.115 26.9229C108.23 27.6682 109.57 28.1046 111.013 28.1046C114.893 28.1046 118.039 24.959 118.039 21.0786V7.02598C118.039 3.1456 114.894 0 111.013 0V0Z" fill="#D3DCFB"/>
<path d="M46.3691 0C44.9266 0 43.5868 0.436057 42.4709 1.1817C44.3565 2.44178 45.5991 4.58814 45.5991 7.02631V21.0783C45.5991 23.5161 44.3565 25.6628 42.4709 26.9229C43.5864 27.6682 44.9266 28.1046 46.3691 28.1046C50.2495 28.1046 53.3951 24.959 53.3951 21.0786V7.02598C53.3954 3.1456 50.2498 0 46.3691 0V0Z" fill="#D3DCFB"/>
<path d="M140.53 11.2417H132.724C138.932 11.2417 143.965 16.2745 143.965 22.483V50.5879H151.771V22.4833C151.772 16.2748 146.739 11.2417 140.53 11.2417Z" fill="#E80054"/>
<path d="M5.61792 36.8013H151.772V41.8907H5.61792V36.8013Z" fill="#E80054"/>
<path d="M120.851 168.626C144.134 168.626 163.008 149.752 163.008 126.47C163.008 103.187 144.134 84.313 120.851 84.313C97.5689 84.313 78.6948 103.187 78.6948 126.47C78.6948 149.752 97.5689 168.626 120.851 168.626Z" fill="#4FABF7"/>
<path d="M120.851 157.384C137.925 157.384 151.766 143.543 151.766 126.47C151.766 109.396 137.925 95.5547 120.851 95.5547C103.778 95.5547 89.9365 109.396 89.9365 126.47C89.9365 143.543 103.778 157.384 120.851 157.384Z" fill="#EBF5FC"/>
<path d="M120.851 123.393C119.446 123.393 118.307 122.254 118.307 120.849V106.796C118.307 105.391 119.446 104.252 120.851 104.252C122.257 104.252 123.396 105.391 123.396 106.796V120.849C123.396 122.254 122.257 123.393 120.851 123.393Z" fill="#3C58A0"/>
<path d="M134.904 129.014H126.472C125.066 129.014 123.927 127.875 123.927 126.47C123.927 125.064 125.067 123.925 126.472 123.925H134.904C136.309 123.925 137.448 125.064 137.448 126.47C137.448 127.875 136.309 129.014 134.904 129.014Z" fill="#3C58A0"/>
<path d="M120.851 84.313C119.536 84.313 118.235 84.3766 116.95 84.4945C138.402 86.4636 155.204 104.503 155.204 126.47C155.204 148.436 138.402 166.475 116.949 168.445C118.234 168.562 119.535 168.626 120.851 168.626C144.133 168.626 163.008 149.752 163.008 126.47C163.008 103.187 144.134 84.313 120.851 84.313Z" fill="#1886EA"/>
<path d="M120.852 95.5547C119.531 95.5547 118.23 95.638 116.952 95.7987C132.185 97.7159 143.968 110.717 143.968 126.47C143.968 142.223 132.185 155.223 116.952 157.14C118.23 157.301 119.531 157.384 120.852 157.384C137.925 157.384 151.766 143.543 151.766 126.47C151.766 109.396 137.925 95.5547 120.852 95.5547Z" fill="#D3DCFB"/>
<path d="M120.851 132.091C123.956 132.091 126.472 129.574 126.472 126.47C126.472 123.365 123.956 120.849 120.851 120.849C117.747 120.849 115.23 123.365 115.23 126.47C115.23 129.574 117.747 132.091 120.851 132.091Z" fill="#FFDD40"/>
</g>
<defs>
<clipPath id="clip0_704_6078">
<rect width="168.626" height="168.626" fill="white"/>
</clipPath>
</defs>
</svg>
